#N canvas -7 62 683 706 10;
#X declare -lib mrpeach;
#X obj -2222 -124 openpanel;
#X obj -2222 -86 soundfiler;
#X obj -2222 -153 bng 15 250 50 0 empty empty empty 17 7 0 10 -4034
-1 -1;
#X obj -2221 464 earplug~ 270 -25;
#X obj -2104 230 hsl 128 15 0 360 0 0 empty empty empty -2 -8 0 10
-192477 -1 -1 6400 1;
#X floatatom -2107 258 5 0 0 0 - - -;
#X obj -2107 285 pack 0 50;
#X obj -2107 314 line 0 1;
#X obj -2128 259 vsl 15 128 -40 90 0 0 empty empty empty 0 -9 0 10
-80512 -1 -1 6350 1;
#X floatatom -2128 393 5 0 0 0 - - -;
#X obj -2128 415 pack 0 50;
#X text -2092 393 elevation angle: -40 to 90 degrees;
#X text -2070 259 azimuth angle: 0 to 360 degrees;
#X text -2077 212 L;
#X text -2014 212 R;
#X text -2194 314 horizontal;
#X text -2177 378 Beneath;
#X text -2166 254 Above;
#X text -2301 341 distance;
#X obj -2220 501 dac~ 1 2;
#X obj -2370 358 hsl 200 15 0 1.5 0 0 empty empty empty -2 -8 0 10
-261234 -1 -1 19900 1;
#X floatatom -2373 378 5 0 0 0 - - -;
#X obj -2222 398 *~;
#X obj -2128 440 line 0 1;
#X msg -2028 302 0 \, 360 5000;
#X text -2110 212 FL;
#X text -2045 212 B;
#X text -1985 213 FR;
#X obj -2028 328 line 0 50;
#X obj -2029 354 0 \, 360 \, 5000;
#X obj -2029 376 line 0 1;
#X text -2376 341 Away;
#X text -2198 342 Near;
#X msg -2303 -148 \; pd dsp 0;
#X text -2338 -116 DSP on/off;
#X msg -2370 -148 \; pd dsp 1;
#X text -2203 -154 load sound;
#X msg -2222 -105 read -resize \$1 channelL channelR;
#X floatatom -2209 -67 5 0 0 0 - - -;
#X obj -2209 -49 s sampleSize;
#X obj -2222 -30 expr 44100/$f1;
#X floatatom -2209 -11 5 0 0 0 - - -;
#X obj -2222 38 phasor~;
#X obj -2124 -30 hsl 128 15 -1 1 0 0 empty empty empty -2 -8 0 10 -262130
-1 -1 0 1;
#X floatatom -2127 -3 5 0.03 2.3 0 - - -;
#X obj -2272 -20 bng 15 250 50 0 empty empty empty 17 7 0 10 -258113
-1 -1;
#X obj -2272 2 t b b;
#X msg -2272 21 0;
#X msg -2151 21 0;
#X obj -2222 59 *~;
#X obj -2171 42 r sampleSize;
#X obj -2227 91 tabread4~ channelL;
#X obj -2200 111 tabread4~ channelR;
#N canvas 0 0 450 300 (subpatch) 0;
#X array channelL 1.07757e+006 float 2;
#X coords 0 1 1.07757e+006 -1 200 140 1;
#X restore -1904 -123 graph;
#N canvas 0 0 450 300 (subpatch) 0;
#X array channelR 1.07757e+006 float 2;
#X coords 0 1 1.07757e+006 -1 200 140 1 0 0;
#X restore -1906 37 graph;
#X obj -2035 34 tgl 15 0 empty empty empty 17 7 0 10 -262144 -1 -1
1 1;
#X obj -2035 56 metro 50;
#X obj -2035 77 snapshot~;
#X floatatom -2035 98 15 0 0 0 - - -;
#X obj -2035 124 /;
#X floatatom -2035 166 5 0 0 0 - - -;
#X obj -2003 124 r sampleSize;
#X obj -1903 182 hsl 195 15 0 1 0 0 empty empty empty -2 -8 0 10 -262144
-1 -1 13874 1;
#X text -2073 -46 Speed control;
#X text -2022 -18 Fast;
#X text -2124 -17 Slow;
#X obj -2261 75 *~;
#X msg -2127 -49 0.161;
#X obj -1822 287 import mrpeach;
#X obj -2373 126 udpreceive 1234;
#X obj -2373 167 unpackOSC;
#X obj -2373 209 routeOSC /distance /heading;
#X floatatom -2373 251 5 0 0 0 - - -;
#X floatatom -2294 251 5 0 0 0 - - -;
#X text -2369 236 Distance;
#X text -2289 234 Heading;
#X msg -2128 194 25;
#X obj -2373 301 * 0.3;
#X connect 0 0 37 0;
#X connect 1 0 38 0;
#X connect 1 0 40 0;
#X connect 2 0 0 0;
#X connect 3 0 19 0;
#X connect 3 1 19 1;
#X connect 4 0 5 0;
#X connect 5 0 6 0;
#X connect 6 0 7 0;
#X connect 7 0 3 1;
#X connect 8 0 9 0;
#X connect 9 0 10 0;
#X connect 10 0 23 0;
#X connect 20 0 21 0;
#X connect 20 0 22 1;
#X connect 22 0 3 0;
#X connect 23 0 3 2;
#X connect 24 0 28 0;
#X connect 28 0 3 1;
#X connect 29 0 30 0;
#X connect 30 0 3 1;
#X connect 37 0 1 0;
#X connect 38 0 39 0;
#X connect 40 0 41 0;
#X connect 40 0 42 0;
#X connect 42 0 49 0;
#X connect 43 0 44 0;
#X connect 44 0 42 0;
#X connect 45 0 46 0;
#X connect 46 0 48 0;
#X connect 46 1 47 0;
#X connect 47 0 42 0;
#X connect 48 0 42 1;
#X connect 49 0 52 0;
#X connect 49 0 57 0;
#X connect 49 0 66 0;
#X connect 50 0 49 1;
#X connect 51 0 22 0;
#X connect 52 0 22 0;
#X connect 55 0 56 0;
#X connect 56 0 57 0;
#X connect 57 0 58 0;
#X connect 58 0 59 0;
#X connect 59 0 60 0;
#X connect 60 0 62 0;
#X connect 61 0 59 1;
#X connect 66 0 51 0;
#X connect 67 0 43 0;
#X connect 69 0 70 0;
#X connect 70 0 71 0;
#X connect 71 0 72 0;
#X connect 71 1 73 0;
#X connect 72 0 77 0;
#X connect 73 0 4 0;
#X connect 76 0 8 0;
#X connect 77 0 20 0;
#X coords 0 -1 1 1 85 60 1 100 100;
